#!OML:ASF H:\Martial Arts Walks\Project 1\Capture day 1\Session 1\male.ASF
:FULLY-SPECIFIED
:DEGREES
1314
root -2.23537 14.0411 13.3404 3.19493 49.2285 -1.42783
lowerback 15.2377 -0.342004 -5.11398
upperback -2.43902 -1.15213 2.63314
thorax -11.1329 -0.106371 6.09675
lowerneck 5.95971 -14.1723 -14.9593
upperneck -1.70137 -19.7951 13.1069
head 1.33496 -10.0594 5.8673
rclavicle 1.51325e-014 6.36111e-015
rhumerus 5.6155 -17.0446 -63.7959
rradius 82.142
rwrist 22.9235
rhand -45.5257 -37.6271
rfingers 7.12502
rthumb -18.2894 -66.7872
lclavicle 1.51325e-014 6.36111e-015
lhumerus -57.4469 -37.9202 116.796
lradius 107.151
lwrist 74.4626
lhand 20.0203 44.4224
lfingers 7.12502
lthumb 44.554 -291.904
rfemur -59.7131 -33.1207 17.6727
rtibia 69.9656
rfoot -7.84209 4.33235
rtoes -1.96102
lfemur -22.6701 26.5348 -1.41112
ltibia 71.4962
lfoot -27.2547 22.3339
ltoes -26.8168
1315
root -2.24211 14.0416 13.3229 3.06223 49.3058 -1.58712
lowerback 15.3024 -0.38062 -4.98694
upperback -2.43181 -1.17904 2.65655
thorax -11.1598 -0.125344 6.05834
lowerneck 5.95397 -14.1724 -14.958
upperneck -1.75226 -19.7921 13.1664
head 1.32673 -10.0586 5.88591
rclavicle -1.58282e-014 -2.0276e-014
rhumerus 5.60779 -17.0356 -63.7265
rradius 82.0851
rwrist 22.9719
rhand -45.5213 -37.709
rfingers 7.12502
rthumb -18.2852 -66.8696
lclavicle -1.58282e-014 -2.0276e-014
lhumerus -57.4438 -37.8808 116.792
lradius 107.137
lwrist 74.4692
lhand 19.9876 44.4086
lfingers 7.12502
lthumb 44.5235 -291.907
rfemur -59.5931 -32.9821 17.6463
rtibia 69.8047
rfoot -7.7505 4.24617
rtoes -2.37664
lfemur -22.8928 26.3933 -1.38949
ltibia 71.7111
lfoot -27.1862 22.3385
ltoes -26.5649
1316
root -2.2496 14.0425 13.303 2.91812 49.3962 -1.76572
lowerback 15.3749 -0.426069 -4.84573
upperback -2.4253 -1.21212 2.68263
thorax -11.1915 -0.147837 6.01663
lowerneck 5.94602 -14.1732 -14.9586
upperneck -1.81158 -19.7892 13.2382
head 1.31791 -10.0579 5.90841
rclavicle 6.24184e-014 2.78299e-014
rhumerus 5.60474 -17.0158 -63.6375
rradius 82.0069
rwrist 23.0159
rhand -45.5285 -37.7869
rfingers 7.12502
rthumb -18.2921 -66.9468
lclavicle 6.24184e-014 2.78299e-014
lhumerus -57.4362 -37.8556 116.789
lradius 107.116
lwrist 74.4881
lhand 19.9505 44.3827
lfingers 7.12502
lthumb 44.4889 -291.919
rfemur -59.465 -32.8364 17.62
rtibia 69.6215
rfoot -7.64335 4.16055
rtoes -2.83865
lfemur -23.1565 26.2088 -1.36979
ltibia 71.9632
lfoot -27.0871 22.3399
ltoes -26.2729
1317
root -2.25783 14.0436 13.2804 2.76246 49.4949 -1.96567
lowerback 15.4539 -0.477174 -4.68981
upperback -2.41929 -1.24947 2.71195
thorax -11.2273 -0.173007 5.97145
lowerneck 5.94077 -14.1732 -14.9599
upperneck -1.8851 -19.785 13.3227
head 1.30572 -10.0568 5.93553
rclavicle 2.04251e-014 -5.1684e-015
rhumerus 5.60993 -16.9857 -63.5276
rradius 81.9024
rwrist 23.0579
rhand -45.5489 -37.8597
rfingers 7.12502
rthumb -18.3118 -67.0178
lclavicle 2.04251e-014 -5.1684e-015
lhumerus -57.4242 -37.845 116.788
lradius 107.086
lwrist 74.5084
lhand 19.9152 44.3408
lfingers 7.12502
lthumb 44.4561 -291.949
rfemur -59.3349 -32.6769 17.5967
rtibia 69.4181
rfoot -7.51414 4.07164
rtoes -3.35223
lfemur -23.4647 25.9787 -1.35109
ltibia 72.2595
lfoot -26.9502 22.3367
ltoes -25.9429
1318
root -2.26675 14.045 13.2546 2.59721 49.5955 -2.18631
lowerback 15.537 -0.532127 -4.52044
upperback -2.41337 -1.28876 2.74449
thorax -11.2657 -0.199737 5.92287
lowerneck 5.94098 -14.1721 -14.9605
upperneck -1.9764 -19.7788 13.418
head 1.28828 -10.055 5.96709
rclavicle -8.78131e-014 3.10104e-014
rhumerus 5.62661 -16.9468 -63.3968
rradius 81.7686
rwrist 23.0982
rhand -45.5803 -37.9339
rfingers 7.12502
rthumb -18.342 -67.0891
lclavicle -8.78131e-014 3.10104e-014
lhumerus -57.4083 -37.8485 116.789
lradius 107.048
lwrist 74.5173
lhand 19.8862 44.2748
lfingers 7.12502
lthumb 44.4291 -292.004
rfemur -59.209 -32.4966 17.577
rtibia 69.1963
rfoot -7.35805 3.97659
rtoes -3.9149
lfemur -23.8203 25.701 -1.33429
ltibia 72.6065
lfoot -26.77 22.3268
ltoes -25.5776
